<mxfile host="app.diagrams.net" modified="2023-08-06T20:52:07.212Z" agent="Mozilla/5.0 (Windows NT 10.0; Win64; x64; rv:102.0) Gecko/20100101 Firefox/102.0" etag="5oDiz_H1Id00X2yj0Nc2" version="21.6.6" type="github">
  <diagram name="Page-1" id="vHBGrTsYqT1RuA5-FNSh">
    <mxGraphModel dx="2977" dy="1826" grid="1" gridSize="10" guides="1" tooltips="1" connect="1" arrows="1" fold="1" page="1" pageScale="1" pageWidth="827" pageHeight="1169" math="0" shadow="0">
      <root>
        <mxCell id="0" />
        <mxCell id="1" parent="0" />
        <mxCell id="SI0JAdaID6cO6t9ZGBBr-18" value="Measurement_event" style="swimlane;fontStyle=1;align=center;verticalAlign=top;childLayout=stackLayout;horizontal=1;startSize=26;horizontalStack=0;resizeParent=1;resizeParentMax=0;resizeLast=0;collapsible=1;marginBottom=0;whiteSpace=wrap;html=1;" parent="1" vertex="1">
          <mxGeometry x="-380" y="-620" width="370" height="180" as="geometry" />
        </mxCell>
        <mxCell id="SI0JAdaID6cO6t9ZGBBr-19" value="&lt;div&gt;+ status: &lt;i&gt;Measurement_status&lt;/i&gt;&lt;/div&gt;&lt;div&gt;+ id_substance: &lt;i&gt;Substance&lt;/i&gt;&lt;/div&gt;&lt;div&gt;&lt;i&gt;+&lt;/i&gt; id_campaign: &lt;i&gt;Campaign&lt;/i&gt;&lt;/div&gt;&lt;div&gt;&lt;i&gt;+ &lt;/i&gt;id_localisation: &lt;i&gt;Localisation&lt;br&gt;&lt;/i&gt;&lt;/div&gt;&lt;div&gt;&lt;i&gt;+ &lt;/i&gt;id_date&lt;i&gt;: Date&lt;br&gt;&lt;/i&gt;&lt;/div&gt;&lt;div&gt;&lt;i&gt;+ &lt;/i&gt;id_matrix: &lt;i&gt;Matrix&lt;br&gt;&lt;/i&gt;&lt;/div&gt;&lt;div&gt;&lt;i&gt;&lt;br&gt;&lt;/i&gt;&lt;/div&gt;&lt;br&gt;&lt;br&gt;&amp;nbsp;&amp;nbsp;" style="text;strokeColor=none;fillColor=none;align=left;verticalAlign=top;spacingLeft=4;spacingRight=4;overflow=hidden;rotatable=0;points=[[0,0.5],[1,0.5]];portConstraint=eastwest;whiteSpace=wrap;html=1;" parent="SI0JAdaID6cO6t9ZGBBr-18" vertex="1">
          <mxGeometry y="26" width="370" height="144" as="geometry" />
        </mxCell>
        <mxCell id="SI0JAdaID6cO6t9ZGBBr-20" value="" style="line;strokeWidth=1;fillColor=none;align=left;verticalAlign=middle;spacingTop=-1;spacingLeft=3;spacingRight=3;rotatable=0;labelPosition=right;points=[];portConstraint=eastwest;strokeColor=inherit;" parent="SI0JAdaID6cO6t9ZGBBr-18" vertex="1">
          <mxGeometry y="170" width="370" height="10" as="geometry" />
        </mxCell>
        <mxCell id="VvgGewaTuvllS4AL0zH4-2" value="Measurement_status" style="swimlane;fontStyle=1;align=center;verticalAlign=top;childLayout=stackLayout;horizontal=1;startSize=26;horizontalStack=0;resizeParent=1;resizeParentMax=0;resizeLast=0;collapsible=1;marginBottom=0;whiteSpace=wrap;html=1;" parent="1" vertex="1">
          <mxGeometry x="-710" y="-620" width="170" height="88" as="geometry" />
        </mxCell>
        <mxCell id="VvgGewaTuvllS4AL0zH4-3" value="&lt;div&gt;- NO MEASURE&lt;/div&gt;&lt;div&gt;- MEASURE IN PROGRESS&lt;/div&gt;&lt;div&gt;- MEASURE&lt;br&gt;&lt;/div&gt;" style="text;strokeColor=#d6b656;fillColor=#fff2cc;align=left;verticalAlign=top;spacingLeft=4;spacingRight=4;overflow=hidden;rotatable=0;points=[[0,0.5],[1,0.5]];portConstraint=eastwest;whiteSpace=wrap;html=1;" parent="VvgGewaTuvllS4AL0zH4-2" vertex="1">
          <mxGeometry y="26" width="170" height="54" as="geometry" />
        </mxCell>
        <mxCell id="VvgGewaTuvllS4AL0zH4-4" value="" style="line;strokeWidth=1;fillColor=none;align=left;verticalAlign=middle;spacingTop=-1;spacingLeft=3;spacingRight=3;rotatable=0;labelPosition=right;points=[];portConstraint=eastwest;strokeColor=inherit;" parent="VvgGewaTuvllS4AL0zH4-2" vertex="1">
          <mxGeometry y="80" width="170" height="8" as="geometry" />
        </mxCell>
        <mxCell id="VvgGewaTuvllS4AL0zH4-6" value="" style="endArrow=none;html=1;edgeStyle=orthogonalEdgeStyle;rounded=0;" parent="1" edge="1">
          <mxGeometry relative="1" as="geometry">
            <mxPoint x="-540" y="-570" as="sourcePoint" />
            <mxPoint x="-380" y="-570" as="targetPoint" />
            <Array as="points">
              <mxPoint x="-460" y="-570" />
              <mxPoint x="-460" y="-570" />
            </Array>
          </mxGeometry>
        </mxCell>
        <mxCell id="VvgGewaTuvllS4AL0zH4-9" value="Level" style="swimlane;fontStyle=1;align=center;verticalAlign=top;childLayout=stackLayout;horizontal=1;startSize=26;horizontalStack=0;resizeParent=1;resizeParentMax=0;resizeLast=0;collapsible=1;marginBottom=0;whiteSpace=wrap;html=1;" parent="1" vertex="1">
          <mxGeometry x="-376" y="10" width="320" height="100" as="geometry" />
        </mxCell>
        <mxCell id="VvgGewaTuvllS4AL0zH4-10" value="&lt;div&gt;+ name: text&lt;i&gt;&lt;br&gt;&lt;/i&gt;&lt;/div&gt;&lt;div&gt;&lt;i&gt;+ &lt;/i&gt;type:&lt;i&gt; Matrix_type &lt;br&gt;&lt;/i&gt;&lt;/div&gt;&lt;div&gt;+ depth: &lt;i&gt;int&lt;/i&gt;&lt;br&gt;&lt;/div&gt;" style="text;strokeColor=none;fillColor=none;align=left;verticalAlign=top;spacingLeft=4;spacingRight=4;overflow=hidden;rotatable=0;points=[[0,0.5],[1,0.5]];portConstraint=eastwest;whiteSpace=wrap;html=1;" parent="VvgGewaTuvllS4AL0zH4-9" vertex="1">
          <mxGeometry y="26" width="320" height="66" as="geometry" />
        </mxCell>
        <mxCell id="VvgGewaTuvllS4AL0zH4-11" value="" style="line;strokeWidth=1;fillColor=none;align=left;verticalAlign=middle;spacingTop=-1;spacingLeft=3;spacingRight=3;rotatable=0;labelPosition=right;points=[];portConstraint=eastwest;strokeColor=inherit;" parent="VvgGewaTuvllS4AL0zH4-9" vertex="1">
          <mxGeometry y="92" width="320" height="8" as="geometry" />
        </mxCell>
        <mxCell id="VvgGewaTuvllS4AL0zH4-13" value="" style="endArrow=none;html=1;rounded=0;exitX=1;exitY=0.063;exitDx=0;exitDy=0;exitPerimeter=0;" parent="1" source="VvgGewaTuvllS4AL0zH4-126" edge="1">
          <mxGeometry relative="1" as="geometry">
            <mxPoint x="-540" y="-460" as="sourcePoint" />
            <mxPoint x="-380" y="-460" as="targetPoint" />
          </mxGeometry>
        </mxCell>
        <mxCell id="VvgGewaTuvllS4AL0zH4-14" value="1" style="edgeLabel;html=1;align=center;verticalAlign=middle;resizable=0;points=[];" parent="VvgGewaTuvllS4AL0zH4-13" vertex="1" connectable="0">
          <mxGeometry x="-0.8208" y="-1" relative="1" as="geometry">
            <mxPoint as="offset" />
          </mxGeometry>
        </mxCell>
        <mxCell id="VvgGewaTuvllS4AL0zH4-20" value="&lt;font style=&quot;font-size: 16px;&quot;&gt;*&lt;/font&gt;" style="edgeLabel;html=1;align=center;verticalAlign=middle;resizable=0;points=[];" parent="VvgGewaTuvllS4AL0zH4-13" vertex="1" connectable="0">
          <mxGeometry x="0.8741" relative="1" as="geometry">
            <mxPoint as="offset" />
          </mxGeometry>
        </mxCell>
        <mxCell id="VvgGewaTuvllS4AL0zH4-21" value="Substance_type" style="swimlane;fontStyle=1;align=center;verticalAlign=top;childLayout=stackLayout;horizontal=1;startSize=26;horizontalStack=0;resizeParent=1;resizeParentMax=0;resizeLast=0;collapsible=1;marginBottom=0;whiteSpace=wrap;html=1;" parent="1" vertex="1">
          <mxGeometry x="-1130" y="-480" width="170" height="108" as="geometry" />
        </mxCell>
        <mxCell id="VvgGewaTuvllS4AL0zH4-22" value="&lt;div&gt;- PFAS&lt;/div&gt;&lt;div&gt;- PYRETHROIDS&lt;br&gt;&lt;/div&gt;&lt;div&gt;- PLASTICIZERS&lt;br&gt;&lt;/div&gt;&lt;div&gt;- METALS&lt;/div&gt;" style="text;strokeColor=#d6b656;fillColor=#fff2cc;align=left;verticalAlign=top;spacingLeft=4;spacingRight=4;overflow=hidden;rotatable=0;points=[[0,0.5],[1,0.5]];portConstraint=eastwest;whiteSpace=wrap;html=1;" parent="VvgGewaTuvllS4AL0zH4-21" vertex="1">
          <mxGeometry y="26" width="170" height="74" as="geometry" />
        </mxCell>
        <mxCell id="VvgGewaTuvllS4AL0zH4-23" value="" style="line;strokeWidth=1;fillColor=none;align=left;verticalAlign=middle;spacingTop=-1;spacingLeft=3;spacingRight=3;rotatable=0;labelPosition=right;points=[];portConstraint=eastwest;strokeColor=inherit;" parent="VvgGewaTuvllS4AL0zH4-21" vertex="1">
          <mxGeometry y="100" width="170" height="8" as="geometry" />
        </mxCell>
        <mxCell id="VvgGewaTuvllS4AL0zH4-25" value="" style="endArrow=none;html=1;rounded=0;entryX=-0.002;entryY=0.444;entryDx=0;entryDy=0;entryPerimeter=0;" parent="1" target="VvgGewaTuvllS4AL0zH4-126" edge="1">
          <mxGeometry relative="1" as="geometry">
            <mxPoint x="-960" y="-436" as="sourcePoint" />
            <mxPoint x="-860" y="-436.27" as="targetPoint" />
          </mxGeometry>
        </mxCell>
        <mxCell id="VvgGewaTuvllS4AL0zH4-29" value="Campaign" style="swimlane;fontStyle=1;align=center;verticalAlign=top;childLayout=stackLayout;horizontal=1;startSize=26;horizontalStack=0;resizeParent=1;resizeParentMax=0;resizeLast=0;collapsible=1;marginBottom=0;whiteSpace=wrap;html=1;" parent="1" vertex="1">
          <mxGeometry x="-350" y="-940" width="320" height="208" as="geometry" />
        </mxCell>
        <mxCell id="VvgGewaTuvllS4AL0zH4-30" value="&lt;div&gt;+ full_name: &lt;i&gt;text&lt;/i&gt;&lt;br&gt;+ short_name: &lt;i&gt;text&lt;/i&gt;&lt;br&gt;+ url_link: &lt;i&gt;url&lt;/i&gt;&lt;br&gt;+ producer: &lt;i&gt;text&lt;/i&gt;&lt;br&gt;+ general_description: &lt;i&gt;text&lt;/i&gt;&lt;br&gt;+ frequency_updates_respected: &lt;i&gt;boolean&lt;/i&gt;&lt;br&gt;&lt;/div&gt;+ license_filled_in: &lt;i&gt;text&lt;/i&gt;&lt;br&gt;+ open_format: &lt;i&gt;text&lt;/i&gt;&lt;br&gt;+ level_of_maintenance: &lt;i&gt;text&lt;/i&gt;&lt;br&gt;+ last_update: &lt;i&gt;text&lt;/i&gt;&lt;br&gt;+ language: &lt;i&gt;text&lt;/i&gt;" style="text;strokeColor=none;fillColor=none;align=left;verticalAlign=top;spacingLeft=4;spacingRight=4;overflow=hidden;rotatable=0;points=[[0,0.5],[1,0.5]];portConstraint=eastwest;whiteSpace=wrap;html=1;" parent="VvgGewaTuvllS4AL0zH4-29" vertex="1">
          <mxGeometry y="26" width="320" height="174" as="geometry" />
        </mxCell>
        <mxCell id="VvgGewaTuvllS4AL0zH4-31" value="" style="line;strokeWidth=1;fillColor=none;align=left;verticalAlign=middle;spacingTop=-1;spacingLeft=3;spacingRight=3;rotatable=0;labelPosition=right;points=[];portConstraint=eastwest;strokeColor=inherit;" parent="VvgGewaTuvllS4AL0zH4-29" vertex="1">
          <mxGeometry y="200" width="320" height="8" as="geometry" />
        </mxCell>
        <mxCell id="VvgGewaTuvllS4AL0zH4-38" value="" style="endArrow=none;html=1;edgeStyle=orthogonalEdgeStyle;rounded=0;exitX=0.466;exitY=0.821;exitDx=0;exitDy=0;exitPerimeter=0;entryX=0.469;entryY=-0.003;entryDx=0;entryDy=0;entryPerimeter=0;" parent="1" source="VvgGewaTuvllS4AL0zH4-31" target="SI0JAdaID6cO6t9ZGBBr-18" edge="1">
          <mxGeometry relative="1" as="geometry">
            <mxPoint x="-360" y="-650" as="sourcePoint" />
            <mxPoint x="-200" y="-650" as="targetPoint" />
            <Array as="points">
              <mxPoint x="-206" y="-733" />
            </Array>
          </mxGeometry>
        </mxCell>
        <mxCell id="VvgGewaTuvllS4AL0zH4-41" value="1" style="edgeLabel;html=1;align=center;verticalAlign=middle;resizable=0;points=[];" parent="VvgGewaTuvllS4AL0zH4-38" vertex="1" connectable="0">
          <mxGeometry x="-0.52" relative="1" as="geometry">
            <mxPoint as="offset" />
          </mxGeometry>
        </mxCell>
        <mxCell id="VvgGewaTuvllS4AL0zH4-43" value="*" style="edgeLabel;html=1;align=center;verticalAlign=middle;resizable=0;points=[];" parent="VvgGewaTuvllS4AL0zH4-38" vertex="1" connectable="0">
          <mxGeometry x="0.7099" y="2" relative="1" as="geometry">
            <mxPoint as="offset" />
          </mxGeometry>
        </mxCell>
        <mxCell id="VvgGewaTuvllS4AL0zH4-44" value="Localisation" style="swimlane;fontStyle=1;align=center;verticalAlign=top;childLayout=stackLayout;horizontal=1;startSize=26;horizontalStack=0;resizeParent=1;resizeParentMax=0;resizeLast=0;collapsible=1;marginBottom=0;whiteSpace=wrap;html=1;" parent="1" vertex="1">
          <mxGeometry x="170" y="-678" width="180" height="108" as="geometry" />
        </mxCell>
        <mxCell id="VvgGewaTuvllS4AL0zH4-45" value="&lt;div&gt;+ id_country: &lt;i&gt;Country&lt;/i&gt;&lt;br&gt;&lt;/div&gt;&lt;div&gt;+ id_city: &lt;i&gt;City&lt;/i&gt;&lt;br&gt;&lt;/div&gt;&lt;div&gt;+ id_region: &lt;i&gt;Region&lt;br&gt;&lt;/i&gt;&lt;/div&gt;&lt;div&gt;+ id_coord: &lt;i&gt;Coordinates&lt;br&gt;&lt;/i&gt;&lt;/div&gt;&lt;br&gt;&amp;nbsp;&amp;nbsp;" style="text;strokeColor=none;fillColor=none;align=left;verticalAlign=top;spacingLeft=4;spacingRight=4;overflow=hidden;rotatable=0;points=[[0,0.5],[1,0.5]];portConstraint=eastwest;whiteSpace=wrap;html=1;" parent="VvgGewaTuvllS4AL0zH4-44" vertex="1">
          <mxGeometry y="26" width="180" height="74" as="geometry" />
        </mxCell>
        <mxCell id="VvgGewaTuvllS4AL0zH4-46" value="" style="line;strokeWidth=1;fillColor=none;align=left;verticalAlign=middle;spacingTop=-1;spacingLeft=3;spacingRight=3;rotatable=0;labelPosition=right;points=[];portConstraint=eastwest;strokeColor=inherit;" parent="VvgGewaTuvllS4AL0zH4-44" vertex="1">
          <mxGeometry y="100" width="180" height="8" as="geometry" />
        </mxCell>
        <mxCell id="VvgGewaTuvllS4AL0zH4-48" value="Country" style="swimlane;fontStyle=1;align=center;verticalAlign=top;childLayout=stackLayout;horizontal=1;startSize=26;horizontalStack=0;resizeParent=1;resizeParentMax=0;resizeLast=0;collapsible=1;marginBottom=0;whiteSpace=wrap;html=1;" parent="1" vertex="1">
          <mxGeometry x="430" y="-808" width="180" height="68" as="geometry" />
        </mxCell>
        <mxCell id="VvgGewaTuvllS4AL0zH4-49" value="&lt;div&gt;+ name: string&lt;br&gt;&lt;/div&gt;&lt;br&gt;&lt;br&gt;&amp;nbsp;&amp;nbsp;" style="text;strokeColor=none;fillColor=none;align=left;verticalAlign=top;spacingLeft=4;spacingRight=4;overflow=hidden;rotatable=0;points=[[0,0.5],[1,0.5]];portConstraint=eastwest;whiteSpace=wrap;html=1;" parent="VvgGewaTuvllS4AL0zH4-48" vertex="1">
          <mxGeometry y="26" width="180" height="34" as="geometry" />
        </mxCell>
        <mxCell id="VvgGewaTuvllS4AL0zH4-50" value="" style="line;strokeWidth=1;fillColor=none;align=left;verticalAlign=middle;spacingTop=-1;spacingLeft=3;spacingRight=3;rotatable=0;labelPosition=right;points=[];portConstraint=eastwest;strokeColor=inherit;" parent="VvgGewaTuvllS4AL0zH4-48" vertex="1">
          <mxGeometry y="60" width="180" height="8" as="geometry" />
        </mxCell>
        <mxCell id="VvgGewaTuvllS4AL0zH4-52" value="City" style="swimlane;fontStyle=1;align=center;verticalAlign=top;childLayout=stackLayout;horizontal=1;startSize=26;horizontalStack=0;resizeParent=1;resizeParentMax=0;resizeLast=0;collapsible=1;marginBottom=0;whiteSpace=wrap;html=1;" parent="1" vertex="1">
          <mxGeometry x="430" y="-722.5" width="180" height="68" as="geometry" />
        </mxCell>
        <mxCell id="VvgGewaTuvllS4AL0zH4-53" value="&lt;div&gt;+ name: string&lt;br&gt;&lt;/div&gt;&lt;br&gt;&lt;br&gt;&amp;nbsp;&amp;nbsp;" style="text;strokeColor=none;fillColor=none;align=left;verticalAlign=top;spacingLeft=4;spacingRight=4;overflow=hidden;rotatable=0;points=[[0,0.5],[1,0.5]];portConstraint=eastwest;whiteSpace=wrap;html=1;" parent="VvgGewaTuvllS4AL0zH4-52" vertex="1">
          <mxGeometry y="26" width="180" height="34" as="geometry" />
        </mxCell>
        <mxCell id="VvgGewaTuvllS4AL0zH4-54" value="" style="line;strokeWidth=1;fillColor=none;align=left;verticalAlign=middle;spacingTop=-1;spacingLeft=3;spacingRight=3;rotatable=0;labelPosition=right;points=[];portConstraint=eastwest;strokeColor=inherit;" parent="VvgGewaTuvllS4AL0zH4-52" vertex="1">
          <mxGeometry y="60" width="180" height="8" as="geometry" />
        </mxCell>
        <mxCell id="VvgGewaTuvllS4AL0zH4-55" value="Region" style="swimlane;fontStyle=1;align=center;verticalAlign=top;childLayout=stackLayout;horizontal=1;startSize=26;horizontalStack=0;resizeParent=1;resizeParentMax=0;resizeLast=0;collapsible=1;marginBottom=0;whiteSpace=wrap;html=1;" parent="1" vertex="1">
          <mxGeometry x="430" y="-643" width="180" height="68" as="geometry" />
        </mxCell>
        <mxCell id="VvgGewaTuvllS4AL0zH4-56" value="&lt;div&gt;+ name: string&lt;br&gt;&lt;/div&gt;&lt;br&gt;&lt;br&gt;&amp;nbsp;&amp;nbsp;" style="text;strokeColor=none;fillColor=none;align=left;verticalAlign=top;spacingLeft=4;spacingRight=4;overflow=hidden;rotatable=0;points=[[0,0.5],[1,0.5]];portConstraint=eastwest;whiteSpace=wrap;html=1;" parent="VvgGewaTuvllS4AL0zH4-55" vertex="1">
          <mxGeometry y="26" width="180" height="34" as="geometry" />
        </mxCell>
        <mxCell id="VvgGewaTuvllS4AL0zH4-57" value="" style="line;strokeWidth=1;fillColor=none;align=left;verticalAlign=middle;spacingTop=-1;spacingLeft=3;spacingRight=3;rotatable=0;labelPosition=right;points=[];portConstraint=eastwest;strokeColor=inherit;" parent="VvgGewaTuvllS4AL0zH4-55" vertex="1">
          <mxGeometry y="60" width="180" height="8" as="geometry" />
        </mxCell>
        <mxCell id="VvgGewaTuvllS4AL0zH4-58" value="Coordinates" style="swimlane;fontStyle=1;align=center;verticalAlign=top;childLayout=stackLayout;horizontal=1;startSize=26;horizontalStack=0;resizeParent=1;resizeParentMax=0;resizeLast=0;collapsible=1;marginBottom=0;whiteSpace=wrap;html=1;" parent="1" vertex="1">
          <mxGeometry x="430" y="-558" width="180" height="78" as="geometry" />
        </mxCell>
        <mxCell id="VvgGewaTuvllS4AL0zH4-59" value="&lt;div&gt;+ longitude: &lt;i&gt;text&lt;/i&gt;&lt;br&gt;&lt;/div&gt;&lt;div&gt;+ latitude: &lt;i&gt;text&lt;/i&gt;&lt;/div&gt;&lt;br&gt;&lt;br&gt;&amp;nbsp;&amp;nbsp;" style="text;strokeColor=none;fillColor=none;align=left;verticalAlign=top;spacingLeft=4;spacingRight=4;overflow=hidden;rotatable=0;points=[[0,0.5],[1,0.5]];portConstraint=eastwest;whiteSpace=wrap;html=1;" parent="VvgGewaTuvllS4AL0zH4-58" vertex="1">
          <mxGeometry y="26" width="180" height="44" as="geometry" />
        </mxCell>
        <mxCell id="VvgGewaTuvllS4AL0zH4-60" value="" style="line;strokeWidth=1;fillColor=none;align=left;verticalAlign=middle;spacingTop=-1;spacingLeft=3;spacingRight=3;rotatable=0;labelPosition=right;points=[];portConstraint=eastwest;strokeColor=inherit;" parent="VvgGewaTuvllS4AL0zH4-58" vertex="1">
          <mxGeometry y="70" width="180" height="8" as="geometry" />
        </mxCell>
        <mxCell id="VvgGewaTuvllS4AL0zH4-62" value="" style="endArrow=none;html=1;edgeStyle=orthogonalEdgeStyle;rounded=0;exitX=0.5;exitY=0;exitDx=0;exitDy=0;" parent="1" source="VvgGewaTuvllS4AL0zH4-44" edge="1">
          <mxGeometry relative="1" as="geometry">
            <mxPoint x="270" y="-774.71" as="sourcePoint" />
            <mxPoint x="430" y="-774.71" as="targetPoint" />
            <Array as="points">
              <mxPoint x="260" y="-775" />
            </Array>
          </mxGeometry>
        </mxCell>
        <mxCell id="VvgGewaTuvllS4AL0zH4-78" value="*" style="edgeLabel;html=1;align=center;verticalAlign=middle;resizable=0;points=[];" parent="VvgGewaTuvllS4AL0zH4-62" vertex="1" connectable="0">
          <mxGeometry x="-0.8725" y="1" relative="1" as="geometry">
            <mxPoint as="offset" />
          </mxGeometry>
        </mxCell>
        <mxCell id="VvgGewaTuvllS4AL0zH4-79" value="1" style="edgeLabel;html=1;align=center;verticalAlign=middle;resizable=0;points=[];" parent="VvgGewaTuvllS4AL0zH4-62" vertex="1" connectable="0">
          <mxGeometry x="0.93" relative="1" as="geometry">
            <mxPoint as="offset" />
          </mxGeometry>
        </mxCell>
        <mxCell id="VvgGewaTuvllS4AL0zH4-63" value="" style="endArrow=none;html=1;edgeStyle=orthogonalEdgeStyle;rounded=0;exitX=1;exitY=0.5;exitDx=0;exitDy=0;" parent="1" source="VvgGewaTuvllS4AL0zH4-45" edge="1">
          <mxGeometry relative="1" as="geometry">
            <mxPoint x="380" y="-598" as="sourcePoint" />
            <mxPoint x="430" y="-688" as="targetPoint" />
            <Array as="points">
              <mxPoint x="350" y="-658" />
              <mxPoint x="380" y="-658" />
              <mxPoint x="380" y="-688" />
            </Array>
          </mxGeometry>
        </mxCell>
        <mxCell id="VvgGewaTuvllS4AL0zH4-80" value="0..1" style="edgeLabel;html=1;align=center;verticalAlign=middle;resizable=0;points=[];" parent="VvgGewaTuvllS4AL0zH4-63" vertex="1" connectable="0">
          <mxGeometry x="0.9385" y="1" relative="1" as="geometry">
            <mxPoint x="-7" as="offset" />
          </mxGeometry>
        </mxCell>
        <mxCell id="VvgGewaTuvllS4AL0zH4-81" value="*" style="edgeLabel;html=1;align=center;verticalAlign=middle;resizable=0;points=[];" parent="VvgGewaTuvllS4AL0zH4-63" vertex="1" connectable="0">
          <mxGeometry x="-0.1726" y="2" relative="1" as="geometry">
            <mxPoint as="offset" />
          </mxGeometry>
        </mxCell>
        <mxCell id="VvgGewaTuvllS4AL0zH4-72" value="" style="endArrow=none;html=1;rounded=0;" parent="1" edge="1">
          <mxGeometry relative="1" as="geometry">
            <mxPoint x="350" y="-620" as="sourcePoint" />
            <mxPoint x="427" y="-620" as="targetPoint" />
          </mxGeometry>
        </mxCell>
        <mxCell id="VvgGewaTuvllS4AL0zH4-82" value="*" style="edgeLabel;html=1;align=center;verticalAlign=middle;resizable=0;points=[];" parent="VvgGewaTuvllS4AL0zH4-72" vertex="1" connectable="0">
          <mxGeometry x="-0.7576" relative="1" as="geometry">
            <mxPoint as="offset" />
          </mxGeometry>
        </mxCell>
        <mxCell id="VvgGewaTuvllS4AL0zH4-84" value="0..1" style="edgeLabel;html=1;align=center;verticalAlign=middle;resizable=0;points=[];" parent="VvgGewaTuvllS4AL0zH4-72" vertex="1" connectable="0">
          <mxGeometry x="0.7576" y="2" relative="1" as="geometry">
            <mxPoint as="offset" />
          </mxGeometry>
        </mxCell>
        <mxCell id="VvgGewaTuvllS4AL0zH4-77" value="" style="endArrow=none;html=1;rounded=0;exitX=0.999;exitY=0.756;exitDx=0;exitDy=0;exitPerimeter=0;" parent="1" source="VvgGewaTuvllS4AL0zH4-45" edge="1">
          <mxGeometry relative="1" as="geometry">
            <mxPoint x="353" y="-520" as="sourcePoint" />
            <mxPoint x="430" y="-520" as="targetPoint" />
          </mxGeometry>
        </mxCell>
        <mxCell id="VvgGewaTuvllS4AL0zH4-83" value="*" style="edgeLabel;html=1;align=center;verticalAlign=middle;resizable=0;points=[];" parent="VvgGewaTuvllS4AL0zH4-77" vertex="1" connectable="0">
          <mxGeometry x="-0.7929" y="2" relative="1" as="geometry">
            <mxPoint as="offset" />
          </mxGeometry>
        </mxCell>
        <mxCell id="VvgGewaTuvllS4AL0zH4-85" value="0..1" style="edgeLabel;html=1;align=center;verticalAlign=middle;resizable=0;points=[];" parent="VvgGewaTuvllS4AL0zH4-77" vertex="1" connectable="0">
          <mxGeometry x="0.7524" y="1" relative="1" as="geometry">
            <mxPoint as="offset" />
          </mxGeometry>
        </mxCell>
        <mxCell id="VvgGewaTuvllS4AL0zH4-86" value="" style="endArrow=none;html=1;rounded=0;exitX=1;exitY=0;exitDx=0;exitDy=0;exitPerimeter=0;" parent="1" edge="1">
          <mxGeometry relative="1" as="geometry">
            <mxPoint x="-10" y="-590" as="sourcePoint" />
            <mxPoint x="170" y="-590" as="targetPoint" />
          </mxGeometry>
        </mxCell>
        <mxCell id="VvgGewaTuvllS4AL0zH4-88" value="1" style="edgeLabel;html=1;align=center;verticalAlign=middle;resizable=0;points=[];" parent="VvgGewaTuvllS4AL0zH4-86" vertex="1" connectable="0">
          <mxGeometry x="0.7576" y="2" relative="1" as="geometry">
            <mxPoint x="8" as="offset" />
          </mxGeometry>
        </mxCell>
        <mxCell id="VvgGewaTuvllS4AL0zH4-91" value="*" style="edgeLabel;html=1;align=center;verticalAlign=middle;resizable=0;points=[];" parent="VvgGewaTuvllS4AL0zH4-86" vertex="1" connectable="0">
          <mxGeometry x="-0.8892" y="3" relative="1" as="geometry">
            <mxPoint as="offset" />
          </mxGeometry>
        </mxCell>
        <mxCell id="VvgGewaTuvllS4AL0zH4-100" value="Date" style="swimlane;fontStyle=1;align=center;verticalAlign=top;childLayout=stackLayout;horizontal=1;startSize=26;horizontalStack=0;resizeParent=1;resizeParentMax=0;resizeLast=0;collapsible=1;marginBottom=0;whiteSpace=wrap;html=1;" parent="1" vertex="1">
          <mxGeometry x="160" y="-500" width="180" height="108" as="geometry" />
        </mxCell>
        <mxCell id="VvgGewaTuvllS4AL0zH4-101" value="&lt;div&gt;+ begin_date: &lt;i&gt;datetime&lt;/i&gt;&lt;br&gt;&lt;/div&gt;&lt;div&gt;+ end_date: &lt;i&gt;datetime&lt;/i&gt;&lt;/div&gt;+ type: &lt;i&gt;Date_type&lt;/i&gt;" style="text;strokeColor=none;fillColor=none;align=left;verticalAlign=top;spacingLeft=4;spacingRight=4;overflow=hidden;rotatable=0;points=[[0,0.5],[1,0.5]];portConstraint=eastwest;whiteSpace=wrap;html=1;" parent="VvgGewaTuvllS4AL0zH4-100" vertex="1">
          <mxGeometry y="26" width="180" height="74" as="geometry" />
        </mxCell>
        <mxCell id="VvgGewaTuvllS4AL0zH4-102" value="" style="line;strokeWidth=1;fillColor=none;align=left;verticalAlign=middle;spacingTop=-1;spacingLeft=3;spacingRight=3;rotatable=0;labelPosition=right;points=[];portConstraint=eastwest;strokeColor=inherit;" parent="VvgGewaTuvllS4AL0zH4-100" vertex="1">
          <mxGeometry y="100" width="180" height="8" as="geometry" />
        </mxCell>
        <mxCell id="VvgGewaTuvllS4AL0zH4-104" value="Possible_unit" style="swimlane;fontStyle=1;align=center;verticalAlign=top;childLayout=stackLayout;horizontal=1;startSize=26;horizontalStack=0;resizeParent=1;resizeParentMax=0;resizeLast=0;collapsible=1;marginBottom=0;whiteSpace=wrap;html=1;" parent="1" vertex="1">
          <mxGeometry x="469" y="-297.57" width="170" height="88" as="geometry" />
        </mxCell>
        <mxCell id="VvgGewaTuvllS4AL0zH4-105" value="&lt;div&gt;- MG/M^3&lt;/div&gt;&lt;div&gt;- ...&lt;/div&gt;&lt;div&gt;- ...&lt;br&gt;&lt;/div&gt;" style="text;strokeColor=#d6b656;fillColor=#fff2cc;align=left;verticalAlign=top;spacingLeft=4;spacingRight=4;overflow=hidden;rotatable=0;points=[[0,0.5],[1,0.5]];portConstraint=eastwest;whiteSpace=wrap;html=1;" parent="VvgGewaTuvllS4AL0zH4-104" vertex="1">
          <mxGeometry y="26" width="170" height="54" as="geometry" />
        </mxCell>
        <mxCell id="VvgGewaTuvllS4AL0zH4-106" value="" style="line;strokeWidth=1;fillColor=none;align=left;verticalAlign=middle;spacingTop=-1;spacingLeft=3;spacingRight=3;rotatable=0;labelPosition=right;points=[];portConstraint=eastwest;strokeColor=inherit;" parent="VvgGewaTuvllS4AL0zH4-104" vertex="1">
          <mxGeometry y="80" width="170" height="8" as="geometry" />
        </mxCell>
        <mxCell id="VvgGewaTuvllS4AL0zH4-107" value="" style="endArrow=none;html=1;rounded=0;entryX=0.002;entryY=0.1;entryDx=0;entryDy=0;entryPerimeter=0;" parent="1" target="VvgGewaTuvllS4AL0zH4-149" edge="1">
          <mxGeometry relative="1" as="geometry">
            <mxPoint x="341.5" y="-420" as="sourcePoint" />
            <mxPoint x="418.5" y="-420" as="targetPoint" />
          </mxGeometry>
        </mxCell>
        <mxCell id="VvgGewaTuvllS4AL0zH4-110" value="" style="endArrow=none;html=1;rounded=0;exitX=1;exitY=0;exitDx=0;exitDy=0;exitPerimeter=0;entryX=0.008;entryY=0.061;entryDx=0;entryDy=0;entryPerimeter=0;" parent="1" target="VvgGewaTuvllS4AL0zH4-101" edge="1">
          <mxGeometry relative="1" as="geometry">
            <mxPoint x="-10" y="-470" as="sourcePoint" />
            <mxPoint x="150" y="-470" as="targetPoint" />
          </mxGeometry>
        </mxCell>
        <mxCell id="VvgGewaTuvllS4AL0zH4-111" value="1" style="edgeLabel;html=1;align=center;verticalAlign=middle;resizable=0;points=[];" parent="VvgGewaTuvllS4AL0zH4-110" vertex="1" connectable="0">
          <mxGeometry x="0.7576" y="2" relative="1" as="geometry">
            <mxPoint x="8" as="offset" />
          </mxGeometry>
        </mxCell>
        <mxCell id="VvgGewaTuvllS4AL0zH4-112" value="*" style="edgeLabel;html=1;align=center;verticalAlign=middle;resizable=0;points=[];" parent="VvgGewaTuvllS4AL0zH4-110" vertex="1" connectable="0">
          <mxGeometry x="-0.8421" y="1" relative="1" as="geometry">
            <mxPoint x="486" y="1018" as="offset" />
          </mxGeometry>
        </mxCell>
        <mxCell id="VvgGewaTuvllS4AL0zH4-113" value="*" style="edgeLabel;html=1;align=center;verticalAlign=middle;resizable=0;points=[];" parent="VvgGewaTuvllS4AL0zH4-110" vertex="1" connectable="0">
          <mxGeometry x="-0.8892" y="3" relative="1" as="geometry">
            <mxPoint as="offset" />
          </mxGeometry>
        </mxCell>
        <mxCell id="VvgGewaTuvllS4AL0zH4-115" value="Matrix" style="swimlane;fontStyle=1;align=center;verticalAlign=top;childLayout=stackLayout;horizontal=1;startSize=26;horizontalStack=0;resizeParent=1;resizeParentMax=0;resizeLast=0;collapsible=1;marginBottom=0;whiteSpace=wrap;html=1;" parent="1" vertex="1">
          <mxGeometry x="-370" y="-340" width="320" height="98" as="geometry" />
        </mxCell>
        <mxCell id="VvgGewaTuvllS4AL0zH4-116" value="&lt;div&gt;+ type: &lt;i&gt;Matrix_type&lt;br&gt;&lt;/i&gt;&lt;/div&gt;+ matrix_name: &lt;i&gt;text&lt;/i&gt;&lt;br&gt;&lt;div&gt;&lt;br&gt;&lt;/div&gt;" style="text;strokeColor=none;fillColor=none;align=left;verticalAlign=top;spacingLeft=4;spacingRight=4;overflow=hidden;rotatable=0;points=[[0,0.5],[1,0.5]];portConstraint=eastwest;whiteSpace=wrap;html=1;" parent="VvgGewaTuvllS4AL0zH4-115" vertex="1">
          <mxGeometry y="26" width="320" height="64" as="geometry" />
        </mxCell>
        <mxCell id="VvgGewaTuvllS4AL0zH4-117" value="" style="line;strokeWidth=1;fillColor=none;align=left;verticalAlign=middle;spacingTop=-1;spacingLeft=3;spacingRight=3;rotatable=0;labelPosition=right;points=[];portConstraint=eastwest;strokeColor=inherit;" parent="VvgGewaTuvllS4AL0zH4-115" vertex="1">
          <mxGeometry y="90" width="320" height="8" as="geometry" />
        </mxCell>
        <mxCell id="VvgGewaTuvllS4AL0zH4-121" value="Matrix_type" style="swimlane;fontStyle=1;align=center;verticalAlign=top;childLayout=stackLayout;horizontal=1;startSize=26;horizontalStack=0;resizeParent=1;resizeParentMax=0;resizeLast=0;collapsible=1;marginBottom=0;whiteSpace=wrap;html=1;" parent="1" vertex="1">
          <mxGeometry x="-700" y="-360" width="260" height="218" as="geometry" />
        </mxCell>
        <mxCell id="VvgGewaTuvllS4AL0zH4-124" value="" style="endArrow=none;html=1;rounded=0;exitX=1.005;exitY=0.297;exitDx=0;exitDy=0;exitPerimeter=0;" parent="VvgGewaTuvllS4AL0zH4-121" source="VvgGewaTuvllS4AL0zH4-122" edge="1">
          <mxGeometry relative="1" as="geometry">
            <mxPoint x="170" y="80" as="sourcePoint" />
            <mxPoint x="330" y="80" as="targetPoint" />
            <Array as="points">
              <mxPoint x="290" y="80" />
            </Array>
          </mxGeometry>
        </mxCell>
        <mxCell id="VvgGewaTuvllS4AL0zH4-122" value="&lt;div&gt;- FOOD&lt;/div&gt;&lt;div&gt;- DRINKING_WATER&lt;br&gt;&lt;/div&gt;&lt;div&gt;- OUTDOOR_AIR&lt;br&gt;&lt;/div&gt;&lt;div&gt;- INDOOR_AIR&lt;br&gt;&lt;/div&gt;&lt;div&gt;- DUST&lt;br&gt;&lt;/div&gt;&lt;div&gt;- SURFACE_WATER&lt;/div&gt;&lt;div&gt;- SOIL&lt;/div&gt;&lt;div&gt;- PET_FUR&lt;/div&gt;&lt;div&gt;- WASTE&lt;/div&gt;&lt;div&gt;- CONSUMER_PRODUCTS&lt;/div&gt;&lt;div&gt;- OCCUPATIONAL_SOURCES&lt;br&gt;&lt;/div&gt;" style="text;strokeColor=#d6b656;fillColor=#fff2cc;align=left;verticalAlign=top;spacingLeft=4;spacingRight=4;overflow=hidden;rotatable=0;points=[[0,0.5],[1,0.5]];portConstraint=eastwest;whiteSpace=wrap;html=1;" parent="VvgGewaTuvllS4AL0zH4-121" vertex="1">
          <mxGeometry y="26" width="260" height="184" as="geometry" />
        </mxCell>
        <mxCell id="VvgGewaTuvllS4AL0zH4-123" value="" style="line;strokeWidth=1;fillColor=none;align=left;verticalAlign=middle;spacingTop=-1;spacingLeft=3;spacingRight=3;rotatable=0;labelPosition=right;points=[];portConstraint=eastwest;strokeColor=inherit;" parent="VvgGewaTuvllS4AL0zH4-121" vertex="1">
          <mxGeometry y="210" width="260" height="8" as="geometry" />
        </mxCell>
        <mxCell id="VvgGewaTuvllS4AL0zH4-125" value="Substance" style="swimlane;fontStyle=1;align=center;verticalAlign=top;childLayout=stackLayout;horizontal=1;startSize=26;horizontalStack=0;resizeParent=1;resizeParentMax=0;resizeLast=0;collapsible=1;marginBottom=0;whiteSpace=wrap;html=1;" parent="1" vertex="1">
          <mxGeometry x="-850" y="-490" width="320" height="98" as="geometry" />
        </mxCell>
        <mxCell id="VvgGewaTuvllS4AL0zH4-126" value="&lt;div&gt;+ type: &lt;i&gt;Substance_type&lt;br&gt;&lt;/i&gt;&lt;/div&gt;&lt;div&gt;&lt;i&gt;+ &lt;/i&gt;iupac_name&lt;i&gt;: text&lt;/i&gt;&lt;/div&gt;&lt;div&gt;&lt;i&gt;+ &lt;/i&gt;cas_name: &lt;i&gt;text&lt;/i&gt;&lt;br&gt;&lt;/div&gt;&lt;div&gt;&lt;br&gt;&lt;/div&gt;" style="text;strokeColor=none;fillColor=none;align=left;verticalAlign=top;spacingLeft=4;spacingRight=4;overflow=hidden;rotatable=0;points=[[0,0.5],[1,0.5]];portConstraint=eastwest;whiteSpace=wrap;html=1;" parent="VvgGewaTuvllS4AL0zH4-125" vertex="1">
          <mxGeometry y="26" width="320" height="64" as="geometry" />
        </mxCell>
        <mxCell id="VvgGewaTuvllS4AL0zH4-127" value="" style="line;strokeWidth=1;fillColor=none;align=left;verticalAlign=middle;spacingTop=-1;spacingLeft=3;spacingRight=3;rotatable=0;labelPosition=right;points=[];portConstraint=eastwest;strokeColor=inherit;" parent="VvgGewaTuvllS4AL0zH4-125" vertex="1">
          <mxGeometry y="90" width="320" height="8" as="geometry" />
        </mxCell>
        <mxCell id="VvgGewaTuvllS4AL0zH4-128" value="Matrix_level" style="swimlane;fontStyle=1;align=center;verticalAlign=top;childLayout=stackLayout;horizontal=1;startSize=26;horizontalStack=0;resizeParent=1;resizeParentMax=0;resizeLast=0;collapsible=1;marginBottom=0;whiteSpace=wrap;html=1;" parent="1" vertex="1">
          <mxGeometry x="-380" y="-160" width="320" height="100" as="geometry" />
        </mxCell>
        <mxCell id="VvgGewaTuvllS4AL0zH4-129" value="&lt;div&gt;+ id_matrix:&lt;i&gt; Matrix&lt;br&gt;&lt;/i&gt;&lt;/div&gt;&lt;div&gt;&lt;i&gt;+ &lt;/i&gt;id_level:&lt;i&gt; Level &lt;br&gt;&lt;/i&gt;&lt;/div&gt;&lt;div&gt;&lt;br&gt;&lt;/div&gt;" style="text;strokeColor=none;fillColor=none;align=left;verticalAlign=top;spacingLeft=4;spacingRight=4;overflow=hidden;rotatable=0;points=[[0,0.5],[1,0.5]];portConstraint=eastwest;whiteSpace=wrap;html=1;" parent="VvgGewaTuvllS4AL0zH4-128" vertex="1">
          <mxGeometry y="26" width="320" height="66" as="geometry" />
        </mxCell>
        <mxCell id="VvgGewaTuvllS4AL0zH4-130" value="" style="line;strokeWidth=1;fillColor=none;align=left;verticalAlign=middle;spacingTop=-1;spacingLeft=3;spacingRight=3;rotatable=0;labelPosition=right;points=[];portConstraint=eastwest;strokeColor=inherit;" parent="VvgGewaTuvllS4AL0zH4-128" vertex="1">
          <mxGeometry y="92" width="320" height="8" as="geometry" />
        </mxCell>
        <mxCell id="VvgGewaTuvllS4AL0zH4-131" value="" style="endArrow=none;html=1;rounded=0;exitX=0.532;exitY=0.021;exitDx=0;exitDy=0;exitPerimeter=0;entryX=0.5;entryY=1;entryDx=0;entryDy=0;" parent="1" source="VvgGewaTuvllS4AL0zH4-128" target="VvgGewaTuvllS4AL0zH4-115" edge="1">
          <mxGeometry relative="1" as="geometry">
            <mxPoint x="-299" y="-189" as="sourcePoint" />
            <mxPoint x="-230" y="-190" as="targetPoint" />
          </mxGeometry>
        </mxCell>
        <mxCell id="VvgGewaTuvllS4AL0zH4-134" value="1" style="edgeLabel;html=1;align=center;verticalAlign=middle;resizable=0;points=[];" parent="VvgGewaTuvllS4AL0zH4-131" vertex="1" connectable="0">
          <mxGeometry x="0.6647" y="-3" relative="1" as="geometry">
            <mxPoint as="offset" />
          </mxGeometry>
        </mxCell>
        <mxCell id="VvgGewaTuvllS4AL0zH4-132" value="*" style="text;html=1;align=center;verticalAlign=middle;resizable=0;points=[];autosize=1;strokeColor=none;fillColor=none;" parent="1" vertex="1">
          <mxGeometry x="-225" y="-182" width="30" height="30" as="geometry" />
        </mxCell>
        <mxCell id="VvgGewaTuvllS4AL0zH4-135" value="" style="endArrow=none;html=1;rounded=0;entryX=0.5;entryY=1;entryDx=0;entryDy=0;" parent="1" edge="1">
          <mxGeometry relative="1" as="geometry">
            <mxPoint x="-210" y="10" as="sourcePoint" />
            <mxPoint x="-210.45" y="-60" as="targetPoint" />
          </mxGeometry>
        </mxCell>
        <mxCell id="VvgGewaTuvllS4AL0zH4-136" value="*" style="edgeLabel;html=1;align=center;verticalAlign=middle;resizable=0;points=[];" parent="VvgGewaTuvllS4AL0zH4-135" vertex="1" connectable="0">
          <mxGeometry x="0.6647" y="-3" relative="1" as="geometry">
            <mxPoint as="offset" />
          </mxGeometry>
        </mxCell>
        <mxCell id="VvgGewaTuvllS4AL0zH4-138" value="1" style="edgeLabel;html=1;align=center;verticalAlign=middle;resizable=0;points=[];" parent="VvgGewaTuvllS4AL0zH4-135" vertex="1" connectable="0">
          <mxGeometry x="-0.5668" y="-3" relative="1" as="geometry">
            <mxPoint as="offset" />
          </mxGeometry>
        </mxCell>
        <mxCell id="VvgGewaTuvllS4AL0zH4-142" value="" style="endArrow=none;html=1;rounded=0;exitX=0.486;exitY=1.25;exitDx=0;exitDy=0;exitPerimeter=0;entryX=0.534;entryY=0.031;entryDx=0;entryDy=0;entryPerimeter=0;" parent="1" source="SI0JAdaID6cO6t9ZGBBr-20" target="VvgGewaTuvllS4AL0zH4-115" edge="1">
          <mxGeometry relative="1" as="geometry">
            <mxPoint x="-265" y="-400" as="sourcePoint" />
            <mxPoint x="-115" y="-400" as="targetPoint" />
          </mxGeometry>
        </mxCell>
        <mxCell id="VvgGewaTuvllS4AL0zH4-143" value="*" style="edgeLabel;html=1;align=center;verticalAlign=middle;resizable=0;points=[];" parent="VvgGewaTuvllS4AL0zH4-142" vertex="1" connectable="0">
          <mxGeometry x="-0.8208" y="-1" relative="1" as="geometry">
            <mxPoint as="offset" />
          </mxGeometry>
        </mxCell>
        <mxCell id="VvgGewaTuvllS4AL0zH4-144" value="1" style="edgeLabel;html=1;align=center;verticalAlign=middle;resizable=0;points=[];" parent="VvgGewaTuvllS4AL0zH4-142" vertex="1" connectable="0">
          <mxGeometry x="0.8741" relative="1" as="geometry">
            <mxPoint as="offset" />
          </mxGeometry>
        </mxCell>
        <mxCell id="VvgGewaTuvllS4AL0zH4-145" value="Ponctual_value" style="swimlane;fontStyle=1;align=center;verticalAlign=top;childLayout=stackLayout;horizontal=1;startSize=26;horizontalStack=0;resizeParent=1;resizeParentMax=0;resizeLast=0;collapsible=1;marginBottom=0;whiteSpace=wrap;html=1;" parent="1" vertex="1">
          <mxGeometry x="90" y="-297.57" width="320" height="98" as="geometry" />
        </mxCell>
        <mxCell id="VvgGewaTuvllS4AL0zH4-146" value="&lt;div&gt;+ concentration:&lt;i&gt; double&lt;br&gt;&lt;/i&gt;&lt;/div&gt;&lt;div&gt;+ unit: &lt;i&gt;Possible_unit&lt;/i&gt;&lt;br&gt;&lt;/div&gt;&lt;div&gt;+ id_measurement_event: &lt;i&gt;Measurement_event&lt;/i&gt;&lt;/div&gt;&lt;div&gt;&lt;br&gt;&lt;/div&gt;" style="text;strokeColor=none;fillColor=none;align=left;verticalAlign=top;spacingLeft=4;spacingRight=4;overflow=hidden;rotatable=0;points=[[0,0.5],[1,0.5]];portConstraint=eastwest;whiteSpace=wrap;html=1;" parent="VvgGewaTuvllS4AL0zH4-145" vertex="1">
          <mxGeometry y="26" width="320" height="64" as="geometry" />
        </mxCell>
        <mxCell id="VvgGewaTuvllS4AL0zH4-147" value="" style="line;strokeWidth=1;fillColor=none;align=left;verticalAlign=middle;spacingTop=-1;spacingLeft=3;spacingRight=3;rotatable=0;labelPosition=right;points=[];portConstraint=eastwest;strokeColor=inherit;" parent="VvgGewaTuvllS4AL0zH4-145" vertex="1">
          <mxGeometry y="90" width="320" height="8" as="geometry" />
        </mxCell>
        <mxCell id="VvgGewaTuvllS4AL0zH4-148" value="Date_type" style="swimlane;fontStyle=1;align=center;verticalAlign=top;childLayout=stackLayout;horizontal=1;startSize=26;horizontalStack=0;resizeParent=1;resizeParentMax=0;resizeLast=0;collapsible=1;marginBottom=0;whiteSpace=wrap;html=1;" parent="1" vertex="1">
          <mxGeometry x="430" y="-450" width="170" height="78" as="geometry" />
        </mxCell>
        <mxCell id="VvgGewaTuvllS4AL0zH4-149" value="&lt;div&gt;- PERIOD&lt;/div&gt;&lt;div&gt;- PONCTUAL&lt;br&gt;&lt;/div&gt;" style="text;strokeColor=#d6b656;fillColor=#fff2cc;align=left;verticalAlign=top;spacingLeft=4;spacingRight=4;overflow=hidden;rotatable=0;points=[[0,0.5],[1,0.5]];portConstraint=eastwest;whiteSpace=wrap;html=1;" parent="VvgGewaTuvllS4AL0zH4-148" vertex="1">
          <mxGeometry y="26" width="170" height="44" as="geometry" />
        </mxCell>
        <mxCell id="VvgGewaTuvllS4AL0zH4-150" value="" style="line;strokeWidth=1;fillColor=none;align=left;verticalAlign=middle;spacingTop=-1;spacingLeft=3;spacingRight=3;rotatable=0;labelPosition=right;points=[];portConstraint=eastwest;strokeColor=inherit;" parent="VvgGewaTuvllS4AL0zH4-148" vertex="1">
          <mxGeometry y="70" width="170" height="8" as="geometry" />
        </mxCell>
        <mxCell id="VvgGewaTuvllS4AL0zH4-151" value="" style="endArrow=none;html=1;rounded=0;exitX=1.005;exitY=0.297;exitDx=0;exitDy=0;exitPerimeter=0;" parent="1" edge="1">
          <mxGeometry relative="1" as="geometry">
            <mxPoint x="409" y="-247.93" as="sourcePoint" />
            <mxPoint x="469" y="-249.57" as="targetPoint" />
          </mxGeometry>
        </mxCell>
        <mxCell id="VvgGewaTuvllS4AL0zH4-152" value="" style="endArrow=none;html=1;rounded=0;exitX=1;exitY=0;exitDx=0;exitDy=0;exitPerimeter=0;entryX=0.084;entryY=-0.001;entryDx=0;entryDy=0;entryPerimeter=0;" parent="1" target="VvgGewaTuvllS4AL0zH4-145" edge="1">
          <mxGeometry relative="1" as="geometry">
            <mxPoint x="-10" y="-440" as="sourcePoint" />
            <mxPoint x="161" y="-439" as="targetPoint" />
          </mxGeometry>
        </mxCell>
        <mxCell id="VvgGewaTuvllS4AL0zH4-153" value="*" style="edgeLabel;html=1;align=center;verticalAlign=middle;resizable=0;points=[];" parent="VvgGewaTuvllS4AL0zH4-152" vertex="1" connectable="0">
          <mxGeometry x="0.7576" y="2" relative="1" as="geometry">
            <mxPoint x="8" as="offset" />
          </mxGeometry>
        </mxCell>
        <mxCell id="VvgGewaTuvllS4AL0zH4-155" value="1" style="edgeLabel;html=1;align=center;verticalAlign=middle;resizable=0;points=[];" parent="VvgGewaTuvllS4AL0zH4-152" vertex="1" connectable="0">
          <mxGeometry x="-0.8892" y="3" relative="1" as="geometry">
            <mxPoint as="offset" />
          </mxGeometry>
        </mxCell>
        <mxCell id="VvgGewaTuvllS4AL0zH4-156" value="Statistics" style="swimlane;fontStyle=1;align=center;verticalAlign=top;childLayout=stackLayout;horizontal=1;startSize=26;horizontalStack=0;resizeParent=1;resizeParentMax=0;resizeLast=0;collapsible=1;marginBottom=0;whiteSpace=wrap;html=1;" parent="1" vertex="1">
          <mxGeometry x="90" y="-160" width="320" height="98" as="geometry" />
        </mxCell>
        <mxCell id="VvgGewaTuvllS4AL0zH4-157" value="&lt;div&gt;+ value:&lt;i&gt; double&lt;br&gt;&lt;/i&gt;&lt;/div&gt;&lt;div&gt;+ type: &lt;i&gt;Stats&lt;/i&gt;&lt;br&gt;&lt;/div&gt;&lt;div&gt;+ id_measurement_event: &lt;i&gt;Measurement_event&lt;/i&gt;&lt;/div&gt;&lt;div&gt;&lt;br&gt;&lt;/div&gt;" style="text;strokeColor=none;fillColor=none;align=left;verticalAlign=top;spacingLeft=4;spacingRight=4;overflow=hidden;rotatable=0;points=[[0,0.5],[1,0.5]];portConstraint=eastwest;whiteSpace=wrap;html=1;" parent="VvgGewaTuvllS4AL0zH4-156" vertex="1">
          <mxGeometry y="26" width="320" height="64" as="geometry" />
        </mxCell>
        <mxCell id="VvgGewaTuvllS4AL0zH4-158" value="" style="line;strokeWidth=1;fillColor=none;align=left;verticalAlign=middle;spacingTop=-1;spacingLeft=3;spacingRight=3;rotatable=0;labelPosition=right;points=[];portConstraint=eastwest;strokeColor=inherit;" parent="VvgGewaTuvllS4AL0zH4-156" vertex="1">
          <mxGeometry y="90" width="320" height="8" as="geometry" />
        </mxCell>
        <mxCell id="VvgGewaTuvllS4AL0zH4-159" value="" style="endArrow=none;html=1;rounded=0;exitX=1;exitY=0;exitDx=0;exitDy=0;exitPerimeter=0;entryX=-0.002;entryY=0.274;entryDx=0;entryDy=0;entryPerimeter=0;" parent="1" target="VvgGewaTuvllS4AL0zH4-157" edge="1">
          <mxGeometry relative="1" as="geometry">
            <mxPoint x="-47" y="-439.57" as="sourcePoint" />
            <mxPoint x="50" y="-220" as="targetPoint" />
          </mxGeometry>
        </mxCell>
        <mxCell id="VvgGewaTuvllS4AL0zH4-160" value="*" style="edgeLabel;html=1;align=center;verticalAlign=middle;resizable=0;points=[];" parent="VvgGewaTuvllS4AL0zH4-159" vertex="1" connectable="0">
          <mxGeometry x="0.7576" y="2" relative="1" as="geometry">
            <mxPoint x="8" as="offset" />
          </mxGeometry>
        </mxCell>
        <mxCell id="VvgGewaTuvllS4AL0zH4-162" value="1" style="edgeLabel;html=1;align=center;verticalAlign=middle;resizable=0;points=[];" parent="VvgGewaTuvllS4AL0zH4-159" vertex="1" connectable="0">
          <mxGeometry x="-0.8892" y="3" relative="1" as="geometry">
            <mxPoint as="offset" />
          </mxGeometry>
        </mxCell>
        <mxCell id="VvgGewaTuvllS4AL0zH4-163" value="Stats" style="swimlane;fontStyle=1;align=center;verticalAlign=top;childLayout=stackLayout;horizontal=1;startSize=26;horizontalStack=0;resizeParent=1;resizeParentMax=0;resizeLast=0;collapsible=1;marginBottom=0;whiteSpace=wrap;html=1;" parent="1" vertex="1">
          <mxGeometry x="468.5" y="-155" width="170" height="108" as="geometry" />
        </mxCell>
        <mxCell id="VvgGewaTuvllS4AL0zH4-164" value="&lt;div&gt;- MEDIAN&lt;br&gt;&lt;/div&gt;&lt;div&gt;- MEAN&lt;br&gt;&lt;/div&gt;&lt;div&gt;- P95&lt;/div&gt;&lt;div&gt;- ...&lt;br&gt;&lt;/div&gt;" style="text;strokeColor=#d6b656;fillColor=#fff2cc;align=left;verticalAlign=top;spacingLeft=4;spacingRight=4;overflow=hidden;rotatable=0;points=[[0,0.5],[1,0.5]];portConstraint=eastwest;whiteSpace=wrap;html=1;" parent="VvgGewaTuvllS4AL0zH4-163" vertex="1">
          <mxGeometry y="26" width="170" height="74" as="geometry" />
        </mxCell>
        <mxCell id="VvgGewaTuvllS4AL0zH4-165" value="" style="line;strokeWidth=1;fillColor=none;align=left;verticalAlign=middle;spacingTop=-1;spacingLeft=3;spacingRight=3;rotatable=0;labelPosition=right;points=[];portConstraint=eastwest;strokeColor=inherit;" parent="VvgGewaTuvllS4AL0zH4-163" vertex="1">
          <mxGeometry y="100" width="170" height="8" as="geometry" />
        </mxCell>
        <mxCell id="VvgGewaTuvllS4AL0zH4-166" value="" style="endArrow=none;html=1;rounded=0;exitX=1.005;exitY=0.297;exitDx=0;exitDy=0;exitPerimeter=0;" parent="1" edge="1">
          <mxGeometry relative="1" as="geometry">
            <mxPoint x="410" y="-109.18" as="sourcePoint" />
            <mxPoint x="470" y="-110.82" as="targetPoint" />
          </mxGeometry>
        </mxCell>
        <mxCell id="VvgGewaTuvllS4AL0zH4-167" value="Distribution" style="swimlane;fontStyle=1;align=center;verticalAlign=top;childLayout=stackLayout;horizontal=1;startSize=26;horizontalStack=0;resizeParent=1;resizeParentMax=0;resizeLast=0;collapsible=1;marginBottom=0;whiteSpace=wrap;html=1;" parent="1" vertex="1">
          <mxGeometry x="86.98" width="320" height="168" as="geometry" />
        </mxCell>
        <mxCell id="VvgGewaTuvllS4AL0zH4-168" value="&lt;div&gt;+ type:&lt;i&gt; Distrib&lt;br&gt;&lt;/i&gt;&lt;/div&gt;&lt;div&gt;+ param1: &lt;i&gt;double&lt;br&gt;&lt;/i&gt;&lt;/div&gt;&lt;div&gt;+ param2: &lt;i&gt;double&lt;/i&gt;&lt;br&gt;&lt;/div&gt;&lt;div&gt;+ param3: &lt;i&gt;double&lt;/i&gt;&lt;br&gt;&lt;/div&gt;&lt;div&gt;+ ...&lt;/div&gt;&lt;div&gt;&lt;br&gt;&lt;/div&gt;&lt;div&gt;+ id_measurement_event: &lt;i&gt;Measurement_event&lt;/i&gt;&lt;/div&gt;&lt;div&gt;&lt;br&gt;&lt;/div&gt;" style="text;strokeColor=none;fillColor=none;align=left;verticalAlign=top;spacingLeft=4;spacingRight=4;overflow=hidden;rotatable=0;points=[[0,0.5],[1,0.5]];portConstraint=eastwest;whiteSpace=wrap;html=1;" parent="VvgGewaTuvllS4AL0zH4-167" vertex="1">
          <mxGeometry y="26" width="320" height="134" as="geometry" />
        </mxCell>
        <mxCell id="VvgGewaTuvllS4AL0zH4-169" value="" style="line;strokeWidth=1;fillColor=none;align=left;verticalAlign=middle;spacingTop=-1;spacingLeft=3;spacingRight=3;rotatable=0;labelPosition=right;points=[];portConstraint=eastwest;strokeColor=inherit;" parent="VvgGewaTuvllS4AL0zH4-167" vertex="1">
          <mxGeometry y="160" width="320" height="8" as="geometry" />
        </mxCell>
        <mxCell id="VvgGewaTuvllS4AL0zH4-171" value="Stats" style="swimlane;fontStyle=1;align=center;verticalAlign=top;childLayout=stackLayout;horizontal=1;startSize=26;horizontalStack=0;resizeParent=1;resizeParentMax=0;resizeLast=0;collapsible=1;marginBottom=0;whiteSpace=wrap;html=1;" parent="1" vertex="1">
          <mxGeometry x="465.48" y="5" width="170" height="108" as="geometry" />
        </mxCell>
        <mxCell id="VvgGewaTuvllS4AL0zH4-172" value="&lt;div&gt;- NORMAL(m, sd)&lt;br&gt;&lt;/div&gt;&lt;div&gt;- ...&lt;br&gt;&lt;/div&gt;" style="text;strokeColor=#d6b656;fillColor=#fff2cc;align=left;verticalAlign=top;spacingLeft=4;spacingRight=4;overflow=hidden;rotatable=0;points=[[0,0.5],[1,0.5]];portConstraint=eastwest;whiteSpace=wrap;html=1;" parent="VvgGewaTuvllS4AL0zH4-171" vertex="1">
          <mxGeometry y="26" width="170" height="74" as="geometry" />
        </mxCell>
        <mxCell id="VvgGewaTuvllS4AL0zH4-173" value="" style="line;strokeWidth=1;fillColor=none;align=left;verticalAlign=middle;spacingTop=-1;spacingLeft=3;spacingRight=3;rotatable=0;labelPosition=right;points=[];portConstraint=eastwest;strokeColor=inherit;" parent="VvgGewaTuvllS4AL0zH4-171" vertex="1">
          <mxGeometry y="100" width="170" height="8" as="geometry" />
        </mxCell>
        <mxCell id="VvgGewaTuvllS4AL0zH4-174" value="" style="endArrow=none;html=1;rounded=0;exitX=1.005;exitY=0.297;exitDx=0;exitDy=0;exitPerimeter=0;" parent="1" edge="1">
          <mxGeometry relative="1" as="geometry">
            <mxPoint x="406.98" y="50.81999999999999" as="sourcePoint" />
            <mxPoint x="466.98" y="49.18000000000001" as="targetPoint" />
          </mxGeometry>
        </mxCell>
        <mxCell id="VvgGewaTuvllS4AL0zH4-175" value="" style="endArrow=none;html=1;rounded=0;exitX=1;exitY=0;exitDx=0;exitDy=0;exitPerimeter=0;entryX=-0.009;entryY=0.305;entryDx=0;entryDy=0;entryPerimeter=0;" parent="1" target="VvgGewaTuvllS4AL0zH4-168" edge="1">
          <mxGeometry relative="1" as="geometry">
            <mxPoint x="-60" y="-440" as="sourcePoint" />
            <mxPoint x="76" y="-116.43" as="targetPoint" />
          </mxGeometry>
        </mxCell>
        <mxCell id="VvgGewaTuvllS4AL0zH4-178" value="1" style="edgeLabel;html=1;align=center;verticalAlign=middle;resizable=0;points=[];" parent="VvgGewaTuvllS4AL0zH4-175" vertex="1" connectable="0">
          <mxGeometry x="-0.8892" y="3" relative="1" as="geometry">
            <mxPoint as="offset" />
          </mxGeometry>
        </mxCell>
        <mxCell id="VvgGewaTuvllS4AL0zH4-179" value="0..1" style="edgeLabel;html=1;align=center;verticalAlign=middle;resizable=0;points=[];" parent="VvgGewaTuvllS4AL0zH4-175" vertex="1" connectable="0">
          <mxGeometry x="0.8317" y="10" relative="1" as="geometry">
            <mxPoint as="offset" />
          </mxGeometry>
        </mxCell>
      </root>
    </mxGraphModel>
  </diagram>
</mxfile>
